{"title":"Shame 2012 CAM READNFO XViD - INSPiRAL","uid":6982684,"size":1487605861,"categoryP":"video","categoryS":"movies","magnet":"?xt=urn:btih:799fe1defd1fbca6711e235402c836122cbb7061&amp;dn=Shame+2012+CAM+READNFO+XViD+-+INSPiRAL&amp;tr=udp%3A%2F%2Ftracker.openbittorrent.com%3A80&amp;tr=udp%3A%2F%2Fopen.demonii.com%3A1337&amp;tr=udp%3A%2F%2Ftracker.coppersurfer.tk%3A6969&amp;tr=udp%3A%2F%2Fexodus.desync.com%3A6969","seeders":0,"leechers":1,"uploader":".BONE.","files":102,"time":1327454841,"description":"TITLE:\n\nShame 2012 CAM READNFO XViD - INSPiRAL\n\nIMDB:\n &lt;a href=&quot;\nhttp://www.imdb.com/title/tt1723811/&quot; rel=&quot;nofollow&quot; target=&quot;_NEW&quot;&gt;\nhttp://www.imdb.com/title/tt1723811/&lt;/a&gt;\n\n\nSOURCES:\n\nVIDEO - P76 THANKS\nAUDIO - Wendy THANKS\nSUBS - None Add\n\n\nVideo\nID : 0\nFormat : MPEG-4 Visual\nFormat profile : Advanced Simple@L5\nFormat settings, BVOP : 2\nFormat settings, QPel : No\nFormat settings, GMC : No warppoints\nFormat settings, Matrix : Default (MPEG)\nMuxing mode : Packed bitstream\nCodec ID : XVID\nCodec ID/Hint : XviD\nDuration : 1h 35mn\nBit rate : 1 928 Kbps\nWidth : 640 pixels\nHeight : 256 pixels\nDisplay aspect ratio : 2.500\nFrame rate : 25.000 fps\nColor space : YUV\nChroma subsampling : 4:2:0\nBit depth : 8 bits\nScan type : Progressive\nCompression mode : Lossy\nBits/(Pixel*Frame) : 0.471\nStream size : 1.28 GiB (93%)\nWriting library : XviD 64\n\nAudio\nID : 1\nFormat : MPEG Audio\nFormat version : Version 1\nFormat profile : Layer 3\nMode : Joint stereo\nMode extension : MS Stereo\nCodec ID : 55\nCodec ID/Hint : MP3\nDuration : 1h 35mn\nBit rate mode : Constant\nBit rate : 128 Kbps\nChannel(s) : 2 channels\nSampling rate : 44.1 KHz\nCompression mode : Lossy\nStream size : 87.1 MiB (6%)\nAlignment : Split accross interleaves\nInterleave, duration : 40 ms (1.00 video frame)\nInterleave, preload duration : 500 ms\n\n\nNOTES:\n\nVideo was pretty nice considering the size,res etc....but the main issue is a faded watermark &quot;shame&quot; on the video itself...\nno we never put it there.After a bit you forget about it as its quite faded.\nAudio is very nice for cam indeed,some hiss and a couple of coughs but otherwise clean.\nVideo we tweaked the brightness,contrast,chroma,changed the rgb eq settings .....basically gave it some lov'in.\nAudio,now cleaning it was the easy part ....syncing it what bitch :lol:\nWas going oos every min or so by a second...so needed to cut and stretch,but the main problem we found when syncing was the video is\nmissing over 40 secs in 3 places ...a couple of 1 - 2 secs cuts and a big massive one lasting over 37secs.\nAnd abit of work we got it all done so insync and looking and sounding good.\n","torrent":{"xt":"urn:btih:799fe1defd1fbca6711e235402c836122cbb7061","amp;dn":"Shame+2012+CAM+READNFO+XViD+-+INSPiRAL","amp;tr":["udp%3A%2F%2Ftracker.openbittorrent.com%3A80","udp%3A%2F%2Fopen.demonii.com%3A1337","udp%3A%2F%2Ftracker.coppersurfer.tk%3A6969","udp%3A%2F%2Fexodus.desync.com%3A6969"],"infoHash":"799fe1defd1fbca6711e235402c836122cbb7061","infoHashBuffer":{"type":"Buffer","data":[121,159,225,222,253,31,188,166,113,30,35,84,2,200,54,18,44,187,112,97]},"announce":[],"urlList":[]}}